<svg width="19" height="19" viewBox="0 0 19 19" fill="none" xmlns="http://www.w3.org/2000/svg">
<path fill-rule="evenodd" clip-rule="evenodd" d="M9.5 18.05C14.222 18.05 18.05 14.222 18.05 9.5C18.05 4.77803 14.222 0.95 9.5 0.95C4.77803 0.95 0.95 4.77803 0.95 9.5C0.95 14.222 4.77803 18.05 9.5 18.05ZM9.5 19C14.7469 19 19 14.7469 19 9.5C19 4.25315 14.7469 0 9.5 0C4.25315 0 0 4.25315 0 9.5C0 14.7469 4.25315 19 9.5 19Z" fill="#F25252"/>
<path fill-rule="evenodd" clip-rule="evenodd" d="M14.5683 5.823C14.6617 5.90742 14.7178 6.0255 14.7242 6.15127C14.7306 6.27704 14.6868 6.40021 14.6025 6.4937L8.25837 13.5052L4.42227 9.8434C4.33613 9.75537 4.28755 9.63732 4.28678 9.51416C4.28601 9.391 4.33311 9.27235 4.41815 9.18325C4.50318 9.09415 4.6195 9.04157 4.74256 9.03658C4.86562 9.0316 4.98581 9.07461 5.07776 9.15655L8.20802 12.1443L13.898 5.85672C13.9399 5.81045 13.9905 5.77288 14.0469 5.74616C14.1033 5.71945 14.1644 5.70411 14.2267 5.70102C14.2891 5.69793 14.3514 5.70716 14.4102 5.72817C14.4689 5.74918 14.523 5.78157 14.5692 5.82347L14.5683 5.823Z" fill="#F25252"/>
</svg>
