<svg width="22" height="18" viewBox="0 0 22 18" fill="none" xmlns="http://www.w3.org/2000/svg">
<path d="M3.66667 0C2.69421 0 1.76157 0.379284 1.07394 1.05442C0.386308 1.72955 0 2.64522 0 3.6V3.9618L11 9.7776L22 3.9636V3.6C22 2.64522 21.6137 1.72955 20.9261 1.05442C20.2384 0.379284 19.3058 0 18.3333 0H3.66667ZM22 6.0066L11.4345 11.592C11.301 11.6626 11.1517 11.6995 11 11.6995C10.8483 11.6995 10.699 11.6626 10.5655 11.592L0 6.0066V14.4C0 15.3548 0.386308 16.2705 1.07394 16.9456C1.76157 17.6207 2.69421 18 3.66667 18H18.3333C19.3058 18 20.2384 17.6207 20.9261 16.9456C21.6137 16.2705 22 15.3548 22 14.4V6.0066Z" fill="#5068F2"/>
</svg>
