<svg width="15" height="15" viewBox="0 0 15 15" fill="none" xmlns="http://www.w3.org/2000/svg">
<path d="M7.66667 14.3333C11.3486 14.3333 14.3333 11.3486 14.3333 7.66667C14.3333 3.98477 11.3486 1 7.66667 1C3.98477 1 1 3.98477 1 7.66667C1 11.3486 3.98477 14.3333 7.66667 14.3333Z" stroke="#FDFDFD" stroke-linecap="round" stroke-linejoin="round"/>
<path d="M1 7.66667H14.3333" stroke="#FDFDFD" stroke-linecap="round" stroke-linejoin="round"/>
<path d="M7.66667 14.3333C9.13943 14.3333 10.3333 11.3486 10.3333 7.66667C10.3333 3.98477 9.13943 1 7.66667 1C6.1939 1 5 3.98477 5 7.66667C5 11.3486 6.1939 14.3333 7.66667 14.3333Z" stroke="#FDFDFD" stroke-linecap="round" stroke-linejoin="round"/>
<path d="M2.95264 3.04737C4.15907 4.2538 5.82573 5 7.66667 5C9.50763 5 11.1743 4.2538 12.3807 3.04737" stroke="#FDFDFD" stroke-linecap="round" stroke-linejoin="round"/>
<path d="M12.3807 12.286C11.1743 11.0795 9.50763 10.3333 7.66667 10.3333C5.82573 10.3333 4.15907 11.0795 2.95264 12.286" stroke="#FDFDFD" stroke-linecap="round" stroke-linejoin="round"/>
</svg>
