<svg width="11" height="18" viewBox="0 0 11 18" fill="none" xmlns="http://www.w3.org/2000/svg">
<path d="M10.4233 1.36466C10.4233 1.2455 10.3775 1.13122 10.296 1.04696C10.2145 0.962703 10.104 0.915366 9.98872 0.915366H7.8158C6.72163 0.859017 5.65035 1.25269 4.83605 2.01037C4.02175 2.76805 3.53062 3.82814 3.46996 4.95901V7.3852H1.29704C1.18178 7.3852 1.07124 7.43254 0.989744 7.51679C0.908244 7.60105 0.862457 7.71533 0.862457 7.83449V10.1708C0.862457 10.29 0.908244 10.4043 0.989744 10.4885C1.07124 10.5728 1.18178 10.6201 1.29704 10.6201H3.46996V16.6407C3.46996 16.7598 3.51575 16.8741 3.59725 16.9584C3.67875 17.0426 3.78929 17.0899 3.90455 17.0899H6.51205C6.62731 17.0899 6.73785 17.0426 6.81935 16.9584C6.90085 16.8741 6.94663 16.7598 6.94663 16.6407V10.6201H9.22385C9.3205 10.6216 9.41484 10.5896 9.49198 10.5294C9.56911 10.4692 9.62463 10.3841 9.64975 10.2876L10.2755 7.95131C10.2928 7.88492 10.2952 7.81532 10.2823 7.74786C10.2695 7.6804 10.2419 7.61688 10.2016 7.56219C10.1613 7.50751 10.1094 7.46311 10.0499 7.43243C9.99037 7.40174 9.92484 7.38558 9.85835 7.3852H6.94663V4.95901C6.96825 4.73659 7.06929 4.53049 7.23 4.38094C7.39072 4.2314 7.59958 4.14916 7.8158 4.15028H9.98872C10.104 4.15028 10.2145 4.10295 10.296 4.01869C10.3775 3.93443 10.4233 3.82015 10.4233 3.70099V1.36466Z" fill="#5068F2"/>
</svg>
