<svg width="13" height="22" viewBox="0 0 13 22" fill="none" xmlns="http://www.w3.org/2000/svg">
<path d="M13 0.618135C13 0.456111 12.9377 0.300724 12.8269 0.186156C12.7161 0.0715881 12.5658 0.0072244 12.4091 0.0072244H9.45455C7.96678 -0.0693949 6.51016 0.465885 5.40294 1.49611C4.29573 2.52634 3.62793 3.96775 3.54545 5.50542V8.80433H0.590909C0.43419 8.80433 0.28389 8.8687 0.173073 8.98327C0.0622564 9.09783 0 9.25322 0 9.41524V12.592C0 12.754 0.0622564 12.9094 0.173073 13.024C0.28389 13.1385 0.43419 13.2029 0.590909 13.2029H3.54545V21.3891C3.54545 21.5511 3.60771 21.7065 3.71853 21.8211C3.82934 21.9356 3.97964 22 4.13636 22H7.68182C7.83854 22 7.98884 21.9356 8.09965 21.8211C8.21047 21.7065 8.27273 21.5511 8.27273 21.3891V13.2029H11.3691C11.5005 13.2048 11.6288 13.1614 11.7337 13.0796C11.8385 12.9977 11.914 12.882 11.9482 12.7508L12.7991 9.57408C12.8226 9.48382 12.8258 9.38918 12.8083 9.29745C12.7909 9.20572 12.7533 9.11936 12.6985 9.045C12.6437 8.97064 12.5732 8.91028 12.4922 8.86855C12.4113 8.82683 12.3222 8.80486 12.2318 8.80433H8.27273V5.50542C8.30212 5.20299 8.4395 4.92275 8.65803 4.71941C8.87656 4.51608 9.16055 4.40426 9.45455 4.40578H12.4091C12.5658 4.40578 12.7161 4.34142 12.8269 4.22685C12.9377 4.11228 13 3.95689 13 3.79487V0.618135Z" fill="#5068F2"/>
</svg>
