<svg width="19" height="19" viewBox="0 0 19 19" fill="none" xmlns="http://www.w3.org/2000/svg">
<path d="M10.45 1.9C12.2137 1.9 13.9051 2.60062 15.1523 3.84774C16.3994 5.09486 17.1 6.78631 17.1 8.55C17.1 8.80196 17.2001 9.04359 17.3782 9.22175C17.5564 9.39991 17.798 9.5 18.05 9.5C18.302 9.5 18.5436 9.39991 18.7217 9.22175C18.8999 9.04359 19 8.80196 19 8.55C19 6.2824 18.0992 4.10767 16.4958 2.50424C14.8923 0.900801 12.7176 0 10.45 0C10.198 0 9.95641 0.100089 9.77825 0.278249C9.60009 0.456408 9.5 0.698044 9.5 0.95C9.5 1.20196 9.60009 1.44359 9.77825 1.62175C9.95641 1.79991 10.198 1.9 10.45 1.9ZM18.7625 13.2145C18.7102 13.062 18.62 12.9253 18.5004 12.8173C18.3807 12.7092 18.2355 12.6334 18.0785 12.597L12.3785 11.2955C12.2238 11.2604 12.0627 11.2646 11.9101 11.3078C11.7574 11.3509 11.618 11.4316 11.5045 11.5425C11.3715 11.666 11.362 11.6755 10.7445 12.8535C8.69554 11.9093 7.05374 10.2608 6.118 8.208C7.3245 7.6 7.334 7.6 7.4575 7.4575C7.56837 7.34403 7.64906 7.2046 7.69221 7.05193C7.73535 6.89926 7.73958 6.73822 7.7045 6.5835L6.403 0.95C6.36656 0.792961 6.29076 0.647777 6.18274 0.528116C6.07471 0.408455 5.93801 0.318252 5.7855 0.266C5.56364 0.18676 5.33454 0.129485 5.1015 0.0949999C4.86139 0.0393254 4.61637 0.00750438 4.37 0C3.211 0 2.09948 0.460409 1.27994 1.27994C0.460409 2.09948 0 3.211 0 4.37C0.00502732 8.24857 1.54801 11.9669 4.29058 14.7094C7.03315 17.452 10.7514 18.995 14.63 19C15.2039 19 15.7721 18.887 16.3023 18.6674C16.8325 18.4477 17.3143 18.1258 17.7201 17.7201C18.1258 17.3143 18.4477 16.8325 18.6673 16.3023C18.887 15.7721 19 15.2039 19 14.63C19.0003 14.3882 18.9812 14.1468 18.943 13.908C18.9031 13.672 18.8427 13.44 18.7625 13.2145Z" fill="#FDFDFD"/>
</svg>
