<svg width="21" height="18" viewBox="0 0 21 18" fill="none" xmlns="http://www.w3.org/2000/svg">
<path d="M21 2.13513C20.2277 2.49594 19.3981 2.73973 18.526 2.84992C19.4259 2.28218 20.0991 1.38861 20.4201 0.33596C19.5746 0.865461 18.6493 1.23817 17.6844 1.43789C17.0355 0.707364 16.176 0.22316 15.2393 0.0604525C14.3027 -0.102255 13.3413 0.0656378 12.5044 0.538065C11.6675 1.01049 11.002 1.76102 10.6111 2.67313C10.2203 3.58523 10.1259 4.60789 10.3428 5.58232C8.62963 5.49162 6.95372 5.02214 5.4238 4.20432C3.89389 3.38651 2.54416 2.23865 1.46221 0.835242C1.09227 1.5081 0.879547 2.28823 0.879547 3.11906C0.879135 3.86701 1.05382 4.60349 1.38811 5.26318C1.7224 5.92286 2.20595 6.48535 2.79587 6.90073C2.11172 6.87778 1.44267 6.68287 0.844402 6.33221V6.39072C0.844333 7.43974 1.18848 8.45648 1.81846 9.26841C2.44843 10.0803 3.32542 10.6375 4.30063 10.8453C3.66597 11.0264 3.00058 11.053 2.35471 10.9233C2.62985 11.8259 3.16581 12.6152 3.88755 13.1807C4.60929 13.7462 5.48068 14.0595 6.37972 14.0769C4.85354 15.3402 2.96871 16.0254 1.02845 16.0224C0.684753 16.0225 0.341346 16.0013 0 15.959C1.96948 17.2941 4.2621 18.0027 6.60354 18C14.5296 18 18.8626 11.0783 18.8626 5.07523C18.8626 4.8802 18.858 4.68322 18.8497 4.48819C19.6925 3.84553 20.42 3.04973 20.9982 2.13805L21 2.13513Z" fill="#5068F2"/>
</svg>
