<svg width="14" height="14" viewBox="0 0 14 14" fill="none" xmlns="http://www.w3.org/2000/svg">
<path d="M6.98765 4.79271C5.77225 4.79271 4.7804 5.78458 4.7804 7C4.7804 8.21542 5.77225 9.20729 6.98765 9.20729C8.20304 9.20729 9.19489 8.21542 9.19489 7C9.19489 5.78458 8.20304 4.79271 6.98765 4.79271ZM13.6077 7C13.6077 6.08596 13.616 5.18019 13.5647 4.2678C13.5134 3.20803 13.2716 2.26749 12.4967 1.49254C11.7201 0.715933 10.7812 0.475831 9.72145 0.424498C8.80742 0.373166 7.90167 0.381445 6.9893 0.381445C6.07527 0.381445 5.16952 0.373166 4.25715 0.424498C3.19741 0.475831 2.25688 0.717589 1.48194 1.49254C0.705351 2.26915 0.465253 3.20803 0.413921 4.2678C0.36259 5.18184 0.370869 6.08761 0.370869 7C0.370869 7.91239 0.36259 8.81981 0.413921 9.7322C0.465253 10.792 0.707007 11.7325 1.48194 12.5075C2.25854 13.2841 3.19741 13.5242 4.25715 13.5755C5.17118 13.6268 6.07693 13.6186 6.9893 13.6186C7.90333 13.6186 8.80908 13.6268 9.72145 13.5755C10.7812 13.5242 11.7217 13.2824 12.4967 12.5075C13.2733 11.7309 13.5134 10.792 13.5647 9.7322C13.6177 8.81981 13.6077 7.91405 13.6077 7ZM6.98765 10.3962C5.10826 10.3962 3.5915 8.87943 3.5915 7C3.5915 5.12058 5.10826 3.60379 6.98765 3.60379C8.86703 3.60379 10.3838 5.12058 10.3838 7C10.3838 8.87943 8.86703 10.3962 6.98765 10.3962ZM10.5229 4.25786C10.0841 4.25786 9.72973 3.9035 9.72973 3.4647C9.72973 3.02589 10.0841 2.67153 10.5229 2.67153C10.9617 2.67153 11.316 3.02589 11.316 3.4647C11.3162 3.56889 11.2957 3.67209 11.2559 3.76838C11.2161 3.86467 11.1577 3.95216 11.084 4.02584C11.0103 4.09952 10.9229 4.15794 10.8266 4.19775C10.7303 4.23757 10.6271 4.25799 10.5229 4.25786Z" fill="#5068F2"/>
</svg>
