<svg width="14" height="14" viewBox="0 0 14 14" fill="none" xmlns="http://www.w3.org/2000/svg">
<path fill-rule="evenodd" clip-rule="evenodd" d="M5.32999 4.99377H7.7883V6.21829C8.14242 5.51402 9.05055 4.88124 10.4147 4.88124C13.0299 4.88124 13.6508 6.28316 13.6508 8.85532V13.619H11.0032V9.44111C11.0032 7.97631 10.6491 7.15025 9.74754 7.15025C8.4972 7.15025 7.97761 8.04052 7.97761 9.44044V13.619H5.32999V4.99377ZM0.789983 13.5065H3.4376V4.88124H0.789983V13.5065ZM3.81687 2.06881C3.81697 2.29073 3.77296 2.51046 3.6874 2.71522C3.60183 2.91998 3.47642 3.10569 3.31846 3.26156C2.99836 3.57969 2.56509 3.75776 2.11379 3.75667C1.66329 3.75637 1.23102 3.57875 0.910449 3.26222C0.753056 3.10582 0.628071 2.9199 0.542658 2.71512C0.457244 2.51033 0.41308 2.2907 0.412697 2.06881C0.412697 1.6207 0.591411 1.19179 0.911111 0.875396C1.2314 0.558448 1.66386 0.380755 2.11445 0.380953C2.56587 0.380953 2.99876 0.559005 3.31846 0.875396C3.6375 1.19179 3.81687 1.6207 3.81687 2.06881Z" fill="#5068F2"/>
</svg>
