<svg width="12" height="15" viewBox="0 0 12 15" fill="none" xmlns="http://www.w3.org/2000/svg">
<path d="M6.00006 3.5C5.50561 3.5 5.02226 3.64662 4.61114 3.92132C4.20001 4.19603 3.87958 4.58647 3.69036 5.04329C3.50114 5.5001 3.45164 6.00277 3.5481 6.48772C3.64456 6.97267 3.88266 7.41813 4.23229 7.76776C4.58193 8.11739 5.02738 8.35549 5.51234 8.45196C5.99729 8.54842 6.49995 8.49891 6.95677 8.30969C7.41359 8.12047 7.80403 7.80004 8.07874 7.38892C8.35344 6.9778 8.50006 6.49445 8.50006 6C8.49931 5.33719 8.23567 4.70174 7.76699 4.23306C7.29832 3.76439 6.66287 3.50075 6.00006 3.5ZM6.00006 7.24999C5.75283 7.24999 5.51116 7.17668 5.3056 7.03933C5.10004 6.90198 4.93982 6.70676 4.84521 6.47835C4.7506 6.24994 4.72585 5.99861 4.77408 5.75613C4.82231 5.51366 4.94136 5.29093 5.11618 5.11611C5.29099 4.9413 5.51372 4.82225 5.7562 4.77401C5.99867 4.72578 6.25001 4.75054 6.47842 4.84515C6.70682 4.93976 6.90205 5.09997 7.0394 5.30553C7.17675 5.51109 7.25006 5.75277 7.25006 6C7.24968 6.3314 7.11786 6.64912 6.88352 6.88346C6.64918 7.11779 6.33146 7.24961 6.00006 7.24999Z" fill="#FDFDFD"/>
<path d="M10.2425 1.63256C9.19347 0.65801 7.79312 0.0790866 6.31174 0.00752453C4.83035 -0.0640376 3.37295 0.376835 2.22081 1.24505C1.06867 2.11327 0.303468 3.34728 0.0728885 4.70893C-0.157691 6.07057 0.162699 7.46332 0.972222 8.61837L5.14348 14.5688C5.23631 14.7012 5.36323 14.81 5.51274 14.8853C5.66225 14.9606 5.82962 15 5.99968 15C6.16974 15 6.33711 14.9606 6.48662 14.8853C6.63613 14.81 6.76305 14.7012 6.85588 14.5688L11.0273 8.61837C11.7784 7.54689 12.1104 6.26806 11.9675 4.9962C11.8246 3.72435 11.2156 2.53679 10.2425 1.63256V1.63256ZM10.1023 8.05841L5.9997 13.9106L1.89709 8.05841C0.6413 6.26704 0.91064 3.86973 2.53751 2.35794C2.99217 1.93545 3.53193 1.60031 4.12597 1.37166C4.72001 1.14301 5.35671 1.02532 5.9997 1.02532C6.64269 1.02532 7.27938 1.14301 7.87343 1.37166C8.46747 1.60031 9.00723 1.93545 9.46189 2.35794C11.0888 3.86973 11.3581 6.26704 10.1023 8.05841Z" fill="#FDFDFD"/>
</svg>
