<svg width="9" height="15" viewBox="0 0 9 15" fill="none" xmlns="http://www.w3.org/2000/svg">
<path d="M0.314232 13.7768C0.11303 13.5782 -3.40075e-08 13.3089 -4.62827e-08 13.0281C-5.85578e-08 12.7473 0.113029 12.4779 0.314232 12.2793L5.6268 7.03704L0.314232 1.79474C0.118731 1.595 0.0105535 1.32748 0.0129987 1.0498C0.015444 0.772124 0.128317 0.506501 0.327305 0.310144C0.526294 0.113788 0.795477 0.0024099 1.07688 -2.90809e-06C1.35828 -0.00241667 1.62939 0.10433 1.8318 0.297245L7.90316 6.28829C8.10436 6.48689 8.21739 6.75622 8.21739 7.03704C8.21739 7.31786 8.10436 7.58719 7.90316 7.78579L1.8318 13.7768C1.63054 13.9754 1.3576 14.0869 1.07302 14.0869C0.788431 14.0869 0.515496 13.9754 0.314232 13.7768Z" fill="#5068F2"/>
</svg>
