<svg width="9" height="15" viewBox="0 0 9 15" fill="none" xmlns="http://www.w3.org/2000/svg">
<path d="M7.90305 0.310076C8.10426 0.508677 8.21729 0.778002 8.21729 1.05882C8.21729 1.33965 8.10426 1.60897 7.90305 1.80757L2.59048 7.04987L7.90305 12.2922C8.09855 12.4919 8.20673 12.7594 8.20429 13.0371C8.20184 13.3148 8.08897 13.5804 7.88998 13.7768C7.69099 13.9731 7.42181 14.0845 7.1404 14.0869C6.859 14.0893 6.5879 13.9826 6.38548 13.7897L0.314125 7.79862C0.112922 7.60002 -0.000107132 7.33069 -0.00010712 7.04987C-0.000107107 6.76905 0.112922 6.49972 0.314125 6.30112L6.38548 0.310076C6.58675 0.111534 6.85968 -5.93428e-08 7.14427 -4.69031e-08C7.42885 -3.44634e-08 7.70179 0.111534 7.90305 0.310076Z" fill="#5068F2"/>
</svg>
