<svg width="17" height="14" viewBox="0 0 17 14" fill="none" xmlns="http://www.w3.org/2000/svg">
<path d="M16.0582 1.95123C15.4902 2.21659 14.8801 2.39588 14.2387 2.47693C14.9005 2.05938 15.3957 1.40221 15.6317 0.628035C15.0099 1.01746 14.3294 1.29157 13.6197 1.43845C13.1425 0.901184 12.5104 0.545076 11.8215 0.425413C11.1326 0.305749 10.4256 0.429226 9.81012 0.776672C9.19464 1.12412 8.70517 1.6761 8.41771 2.3469C8.13024 3.01771 8.06086 3.76982 8.22034 4.48647C6.96042 4.41977 5.72787 4.07448 4.60269 3.47302C3.47751 2.87156 2.48486 2.02737 1.68914 0.995231C1.41706 1.49009 1.26062 2.06383 1.26062 2.67487C1.26031 3.22494 1.38879 3.76659 1.63464 4.25176C1.88049 4.73692 2.23612 5.1506 2.66998 5.45609C2.16682 5.43921 1.67477 5.29586 1.23477 5.03798V5.08101C1.23472 5.85251 1.48782 6.60027 1.95114 7.19741C2.41445 7.79454 3.05943 8.20428 3.77665 8.35709C3.30989 8.49028 2.82053 8.5099 2.34552 8.41446C2.54788 9.0783 2.94205 9.65879 3.47285 10.0747C4.00366 10.4906 4.64452 10.721 5.30572 10.7338C4.18329 11.6629 2.79709 12.1668 1.37013 12.1646C1.11736 12.1647 0.864797 12.1491 0.613754 12.118C2.06221 13.0999 3.74831 13.6211 5.47033 13.619C11.2996 13.619 14.4863 8.5285 14.4863 4.11353C14.4863 3.9701 14.4829 3.82523 14.4768 3.68179C15.0966 3.20915 15.6317 2.62387 16.0568 1.95338L16.0582 1.95123Z" fill="#5068F2"/>
</svg>
