<svg width="24" height="18" viewBox="0 0 24 18" fill="none" xmlns="http://www.w3.org/2000/svg">
<g clip-path="url(#clip0_936_1934)">
<path d="M7.52948 17.9997C7.50884 17.9997 7.4882 17.9997 7.46944 17.9997C6.88966 17.977 6.35491 17.6454 6.04344 17.1077C4.09019 13.7438 0.671536 10.6126 0.637762 10.5817C-0.110889 9.89989 -0.215963 8.68039 0.405099 7.8564C1.02616 7.03447 2.13694 6.91912 2.88559 7.59891C3.01318 7.71426 5.48992 9.97817 7.62142 12.9033C9.78294 10.2254 14.2749 5.25466 21.2829 0.306619C22.101 -0.272232 23.193 -0.0106164 23.7184 0.88753C24.2456 1.78568 24.0073 2.98458 23.1892 3.56137C13.6763 10.2789 8.99301 17.1448 8.94798 17.2128C8.61587 17.7072 8.08863 17.9976 7.52948 17.9976V17.9997Z" fill="#2FA124"/>
</g>
<defs>
<clipPath id="clip0_936_1934">
<rect width="24" height="18" fill="white"/>
</clipPath>
</defs>
</svg>
