<svg width="18" height="18" viewBox="0 0 18 18" fill="none" xmlns="http://www.w3.org/2000/svg">
<g clip-path="url(#clip0_936_2004)">
<path d="M16.118 17.9998C15.6371 17.9998 15.1541 17.8155 14.7875 17.4488L0.550565 3.2139C-0.184824 2.47851 -0.184824 1.28626 0.550565 0.55087C1.28595 -0.184519 2.47821 -0.184519 3.2136 0.55087L17.4485 14.7858C18.1839 15.5211 18.1839 16.7134 17.4485 17.4488C17.0818 17.8155 16.5989 17.9998 16.118 17.9998Z" fill="#E01C1C"/>
<path d="M1.88108 17.9998C1.40017 17.9998 0.917258 17.8155 0.550565 17.4488C-0.184824 16.7134 -0.184824 15.5211 0.550565 14.7858L14.7855 0.55087C15.5208 -0.184519 16.7131 -0.184519 17.4485 0.55087C18.1839 1.28626 18.1839 2.47851 17.4485 3.2139L3.2136 17.4488C2.8469 17.8155 2.36399 17.9998 1.88308 17.9998H1.88108Z" fill="#E01C1C"/>
</g>
<defs>
<clipPath id="clip0_936_2004">
<rect width="18" height="18" fill="white"/>
</clipPath>
</defs>
</svg>
